<svg viewBox="0 0 400 400" xmlns="http://www.w3.org/2000/svg">
  <defs>
    <linearGradient id="darkBg" x1="0%" y1="0%" x2="100%" y2="100%">
      <stop offset="0%" style="stop-color:#3D3D40"/>
      <stop offset="50%" style="stop-color:#2C2C2E"/>
      <stop offset="100%" style="stop-color:#1C1C1E"/>
    </linearGradient>
    <linearGradient id="goldGrad" x1="0%" y1="0%" x2="100%" y2="100%">
      <stop offset="0%" style="stop-color:#FFD700"/>
      <stop offset="50%" style="stop-color:#FFB333"/>
      <stop offset="100%" style="stop-color:#FF8C00"/>
    </linearGradient>
    <filter id="shadow">
      <feDropShadow dx="2" dy="2" stdDeviation="3" flood-opacity="0.5"/>
    </filter>
  </defs>
  
  <circle cx="200" cy="200" r="195" fill="url(#darkBg)"/>
  
  <g filter="url(#shadow)">
    <ellipse cx="130" cy="220" rx="35" ry="48" fill="url(#goldGrad)" stroke="#1C1C1E" stroke-width="4"/>
    <ellipse cx="180" cy="145" rx="30" ry="45" fill="url(#goldGrad)" stroke="#1C1C1E" stroke-width="4"/>
    <ellipse cx="260" cy="145" rx="30" ry="45" fill="url(#goldGrad)" stroke="#1C1C1E" stroke-width="4"/>
    <ellipse cx="300" cy="220" rx="35" ry="48" fill="url(#goldGrad)" stroke="#1C1C1E" stroke-width="4"/>
    
    <path d="M200 200 Q150 230 140 280 Q135 310 170 335 Q200 350 200 350 Q200 350 230 335 Q265 310 260 280 Q250 230 200 200" fill="url(#goldGrad)" stroke="#1C1C1E" stroke-width="4"/>
    
    <ellipse cx="130" cy="220" rx="18" ry="28" fill="#FFF8E1" opacity="0.3"/>
    <ellipse cx="180" cy="145" rx="15" ry="25" fill="#FFF8E1" opacity="0.3"/>
    <ellipse cx="260" cy="145" rx="15" ry="25" fill="#FFF8E1" opacity="0.3"/>
    <ellipse cx="300" cy="220" rx="18" ry="28" fill="#FFF8E1" opacity="0.3"/>
    <ellipse cx="200" cy="285" rx="25" ry="30" fill="#FFF8E1" opacity="0.25"/>
  </g>
  
  <text x="200" y="365" font-family="Arial, sans-serif" font-size="52" font-weight="900" fill="#FFD700" stroke="#1C1C1E" stroke-width="3" text-anchor="middle" letter-spacing="-2">金刚宠</text>
</svg>
